<mxfile host="65bd71144e">
    <diagram id="PAom80tlhGjBSrm2CuiP" name="第 1 页">
        <mxGraphModel dx="990" dy="614" grid="1" gridSize="10" guides="1" tooltips="1" connect="1" arrows="1" fold="1" page="1" pageScale="1" pageWidth="3300" pageHeight="2339" math="0" shadow="0">
            <root>
                <mxCell id="0"/>
                <mxCell id="1" parent="0"/>
                <mxCell id="2" value="&lt;font style=&quot;font-size: 15px&quot;&gt;会员个人信息&lt;/font&gt;" style="rounded=1;whiteSpace=wrap;html=1;" vertex="1" parent="1">
                    <mxGeometry x="390" y="670" width="120" height="60" as="geometry"/>
                </mxCell>
                <mxCell id="3" value="&lt;font style=&quot;font-size: 15px&quot;&gt;用户id&lt;/font&gt;" style="ellipse;whiteSpace=wrap;html=1;" vertex="1" parent="1">
                    <mxGeometry x="100" y="600" width="120" height="60" as="geometry"/>
                </mxCell>
                <mxCell id="4" value="&lt;font style=&quot;font-size: 15px&quot;&gt;用户微信id&lt;/font&gt;" style="ellipse;whiteSpace=wrap;html=1;" vertex="1" parent="1">
                    <mxGeometry x="170" y="540" width="120" height="60" as="geometry"/>
                </mxCell>
                <mxCell id="5" value="&lt;font style=&quot;font-size: 15px&quot;&gt;用户姓名&lt;/font&gt;" style="ellipse;whiteSpace=wrap;html=1;" vertex="1" parent="1">
                    <mxGeometry x="260" y="490" width="120" height="60" as="geometry"/>
                </mxCell>
                <mxCell id="6" value="&lt;font style=&quot;font-size: 15px&quot;&gt;用户性别&lt;/font&gt;" style="ellipse;whiteSpace=wrap;html=1;" vertex="1" parent="1">
                    <mxGeometry x="390" y="490" width="120" height="60" as="geometry"/>
                </mxCell>
                <mxCell id="7" value="&lt;font style=&quot;font-size: 15px&quot;&gt;用户证件类型&lt;/font&gt;" style="ellipse;whiteSpace=wrap;html=1;" vertex="1" parent="1">
                    <mxGeometry x="520" y="490" width="120" height="60" as="geometry"/>
                </mxCell>
                <mxCell id="8" value="&lt;font style=&quot;font-size: 15px&quot;&gt;身份证号&lt;/font&gt;" style="ellipse;whiteSpace=wrap;html=1;" vertex="1" parent="1">
                    <mxGeometry x="620" y="540" width="120" height="60" as="geometry"/>
                </mxCell>
                <mxCell id="10" value="&lt;font style=&quot;font-size: 15px&quot;&gt;用户基本信息&lt;/font&gt;" style="ellipse;whiteSpace=wrap;html=1;" vertex="1" parent="1">
                    <mxGeometry x="710" y="590" width="120" height="60" as="geometry"/>
                </mxCell>
                <mxCell id="11" value="&lt;font style=&quot;font-size: 15px&quot;&gt;联系方式&lt;/font&gt;" style="ellipse;whiteSpace=wrap;html=1;" vertex="1" parent="1">
                    <mxGeometry x="750" y="660" width="120" height="60" as="geometry"/>
                </mxCell>
                <mxCell id="12" value="&lt;font style=&quot;font-size: 15px&quot;&gt;外国语种和水平&lt;/font&gt;" style="ellipse;whiteSpace=wrap;html=1;" vertex="1" parent="1">
                    <mxGeometry x="720" y="730" width="120" height="60" as="geometry"/>
                </mxCell>
                <mxCell id="13" value="&lt;span style=&quot;font-size: 15px&quot;&gt;证明材料&lt;/span&gt;" style="ellipse;whiteSpace=wrap;html=1;" vertex="1" parent="1">
                    <mxGeometry x="660" y="800" width="120" height="60" as="geometry"/>
                </mxCell>
                <mxCell id="14" value="&lt;span style=&quot;font-size: 15px&quot;&gt;审核状态&lt;/span&gt;" style="ellipse;whiteSpace=wrap;html=1;" vertex="1" parent="1">
                    <mxGeometry x="540" y="850" width="120" height="60" as="geometry"/>
                </mxCell>
                <mxCell id="15" value="&lt;span style=&quot;font-size: 15px&quot;&gt;创建时间&lt;/span&gt;" style="ellipse;whiteSpace=wrap;html=1;" vertex="1" parent="1">
                    <mxGeometry x="200" y="750" width="120" height="60" as="geometry"/>
                </mxCell>
                <mxCell id="16" value="&lt;span style=&quot;font-size: 15px&quot;&gt;更新时间&lt;/span&gt;" style="ellipse;whiteSpace=wrap;html=1;" vertex="1" parent="1">
                    <mxGeometry x="140" y="680" width="120" height="60" as="geometry"/>
                </mxCell>
            </root>
        </mxGraphModel>
    </diagram>
</mxfile>